# xmcd
# Copyright (C) 1995-1998 Ti Kan
#
# Track frame offsets:
#       150
#       11360
#       24135
#       43372
#       54852
#       69752
#       82392
#       95352
#       111040
#       124330
#       136972
#       154022
#       166242
#
# Disc length: 2426 seconds
#
# Revision: 2
# Processed by: cddbd v1.5.1PL0 Copyright (c) Steve Scherf et al.
# Submitted via: CD-DA X-Tractor v0.20
#
DISCID=9d09780d
DTITLE=Roy Orbison - The Love Album
DYEAR=1900
DGENRE=
TTITLE0=Only The Lonely
TTITLE1=In Dreams
TTITLE2=She's A Mystery To Me
TTITLE3=Goodnight
TTITLE4=Oh, Such A Stranger
TTITLE5=Too Soon To Know
TTITLE6=Lana
TTITLE7=Ride Away
TTITLE8=Candy Man
TTITLE9=I'm Hurtin'
TTITLE10=I Drove All Night
TTITLE11=My Friend
TTITLE12=You Got It
EXTD=
EXTT0=
EXTT1=
EXTT2=
EXTT3=
EXTT4=
EXTT5=
EXTT6=
EXTT7=
EXTT8=
EXTT9=
EXTT10=
EXTT11=
EXTT12=
PLAYORDER=
